<?xml version="1.0" encoding="utf-8"?>
<!-- Generator: Adobe Illustrator 26.0.1, SVG Export Plug-In . SVG Version: 6.00 Build 0)  -->
<svg version="1.1" id="Layer_1" xmlns="http://www.w3.org/2000/svg" xmlns:xlink="http://www.w3.org/1999/xlink" x="0px" y="0px"
	 viewBox="0 0 50 50" style="enable-background:new 0 0 50 50;" xml:space="preserve">
<style type="text/css">
	.st0{fill:#FEC986;}
	.st1{fill:#C8546F;}
	.st2{fill:#9B4573;}
	.st3{fill:#FEB860;}
	.st4{fill:#1D1D1B;}
</style>
<g>
	<path class="st0" d="M25,5.5c-6.5,0-11.7-1.1-11.7-2.3V20C13.3,26.6,18.5,32,25,32c6.5,0,11.7-5.4,11.7-12.1V3.1
		C36.7,4.4,31.5,5.5,25,5.5z"/>
	<path class="st0" d="M36.7,3.9c0,0-3.4,1.9-11,1.9c-7.9-0.1-12.5-1.9-12.5-1.9"/>
</g>
<path class="st1" d="M28.9,14.8c0,0,2.4-0.3,3.2-0.1c0.4,0.1,1.5,0.9,1.5,0.9v4.7c0,4.7-3.9,8.6-8.6,8.6c-4.7,0-8.6-3.9-8.6-8.6
	v-4.7C16.4,15.6,21.9,18.3,28.9,14.8z"/>
<path class="st2" d="M33.6,15.6v4.7c0,2.8-1.3,5.3-3.4,6.9c-0.5,0.3-0.9,0.6-1.5,0.9V14.9C28.7,14.9,32,13.9,33.6,15.6z"/>
<ellipse class="st3" cx="25" cy="3.1" rx="11.7" ry="2.3"/>
<g>
	<path class="st4" d="M25,29.7c-5.2,0-9.4-4.2-9.4-9.4v-5.8l1.1,0.5c0,0,4.7,2,9.6,0c5.7-2.3,7.8,0.1,7.9,0.2l0.2,0.2v5
		C34.4,25.5,30.2,29.7,25,29.7z M17.2,16.7v3.6c0,4.3,3.5,7.8,7.8,7.8s7.8-3.5,7.8-7.8V16c-0.5-0.4-2.3-1.1-6,0.3
		C22.8,18,19,17.2,17.2,16.7z"/>
	<path class="st4" d="M33.4,0.7C31.2,0.2,28.2,0,25,0s-6.2,0.2-8.4,0.7c-2.8,0.6-4,1.3-4,2.4v17.2c0,6.6,5.2,12.1,11.7,12.5v14.1
		c0,0.9-0.7,1.6-1.6,1.6h-5.5V50h15.6v-1.5h-5.5c-0.9,0-1.6-0.7-1.6-1.6V32.8c6.5-0.4,11.7-5.8,11.7-12.5V3.1
		C37.5,2,36.2,1.3,33.4,0.7z M17.4,2.1c2.1-0.4,4.8-0.6,7.6-0.6c2.8,0,5.5,0.2,7.6,0.6c2,0.4,2.9,0.8,3.2,1c-0.3,0.2-1.2,0.6-3.2,1
		c-2.1,0.4-4.8,0.6-7.6,0.6c-2.8,0-5.5-0.2-7.6-0.6c-2-0.4-2.9-0.8-3.2-1C14.4,2.9,15.3,2.5,17.4,2.1z M36,20.3c0,6-4.9,11-11,11
		c-6,0-11-4.9-11-11V4.8c0.6,0.3,1.5,0.5,2.5,0.7C18.8,6,21.8,6.2,25,6.2s6.2-0.2,8.4-0.7c1.1-0.2,1.9-0.5,2.5-0.7L36,20.3L36,20.3z
		"/>
</g>
</svg>
