<?xml version="1.0" encoding="utf-8"?>
<!-- Generator: Adobe Illustrator 26.0.1, SVG Export Plug-In . SVG Version: 6.00 Build 0)  -->
<svg version="1.1" id="Capa_1" xmlns="http://www.w3.org/2000/svg" xmlns:xlink="http://www.w3.org/1999/xlink" x="0px" y="0px"
	 viewBox="0 0 50 50" style="enable-background:new 0 0 50 50;" xml:space="preserve">
<path d="M50,4C50,3.8,50,3.8,50,4c0-0.2,0-0.3,0-0.3c0-1.3-1.3-2.2-8.2-2.8C37.3,0.3,31.3,0,25,0S12.7,0.3,8.2,0.7
	C1.3,1.3,0,2.3,0,3.5c0,0.2,0,0.2,0,0.3c0,0,0,0,0,0.2l1.8,18l0,0l1.8,19.2l0,0l0.5,5.3c0,1.3,1.3,2.2,7.8,2.8
	c3.8,0.3,8.7,0.7,13,0.7s9.2-0.3,13-0.7c6.5-0.7,7.8-1.7,7.8-2.8l2.3-24.7v-0.2L50,4z M5.2,27.7l-0.3-4.2c0.7,0.2,1.5,0.3,2.3,0.5
	h0.2c0.2,0,0.2,0,0.3,0c-0.3,1.2-0.2,2.5,1,3.5l4.3,4.2c0.8,0.7,1.8,1.2,2.8,1.2H16l0,0c0,0.8,0.5,1.5,1.2,2.2l4.5,4.2
	c0.8,0.8,2,1.2,3,1.2c1,0,2-0.3,2.8-1l4.8-3.8c0.8-0.7,1.3-1.5,1.3-2.5c0-1-0.3-1.8-1.2-2.5l-0.7-0.7c0.7-0.2,1.3-0.5,2-0.8l4.8-3.8
	c0.2-0.2,0.3-0.3,0.7-0.7c2.8-0.2,4.8-0.5,6.2-0.8L43.8,40c-3.7,0.8-11.7,1.5-18.7,1.5S10,40.8,6.3,40L5.2,27.7z M47,6l-1.3,13.7
	c-1.7-0.3-4.3-0.8-8.5-1L34.3,16c-1.5-1.5-4.2-1.5-5.8-0.2l-3,2.3h-0.3c-2.3,0-4.5,0-6.7,0.2c-1.3-0.7-3.2-0.7-4.5,0.2
	c-5,0.3-7.8,0.7-9.7,1.2L3,6c3.3,0.8,9.7,1.2,22,1.2S43.7,6.8,47,6z M8.7,21.8L8.7,21.8c-0.8,0-1.5-0.2-2-0.3c1-0.2,2.2-0.3,3.8-0.5
	l-0.7,0.7L9.5,22l0,0C9.2,22,9,21.8,8.7,21.8z M15.5,20.5c0.3-0.2,0.7-0.3,1-0.3s0.7,0.2,1,0.3l2.2,2c-2.3,0-4.5-0.2-6.3-0.3
	l0.7-0.5L15.5,20.5z M27,20.2L27,20.2l3.3-2.7c0.3-0.2,0.7-0.3,1-0.3c0.3,0,0.7,0.2,1,0.3l4.3,4.2c0.2,0.2,0.2,0.2,0.2,0.3v0.2
	c0,0,0,0,0,0.2c-3.2,0.2-7.2,0.3-11.8,0.3l0,0l0,0c-0.2-0.5,0-1,0.3-1.2L27,20.2z M39.7,21.2c1.7,0.2,2.8,0.3,3.8,0.5
	c-0.8,0.2-2,0.3-3.5,0.5l0,0C39.8,21.7,39.7,21.5,39.7,21.2L39.7,21.2z M22.8,20.7c0,0,0,0.2-0.2,0.2c0,0.2-0.2,0.2-0.2,0.3v0.2
	c0,0,0,0,0,0.2l-1.2-1C21.8,20.5,22.3,20.5,22.8,20.7L22.8,20.7z M10.5,24.5c4,0.3,8.7,0.5,11.7,0.5c0.2,0.5,0.2,1-0.3,1.3L17,30.2
	c-0.3,0.2-0.7,0.3-1,0.3c-0.3,0-0.7-0.2-1-0.3L10.5,26C10.2,25.5,10.2,24.8,10.5,24.5z M19.3,31.7l4.8-3.8c0.3-0.2,0.7-0.3,1-0.3
	l0,0c0.3,0,0.7,0.2,1,0.3l4.5,4.2c0.5,0.5,0.5,1.2,0,1.7l-4.8,3.8c-0.3,0.2-0.7,0.3-1,0.3c-0.3,0-0.7-0.2-1-0.3l-4.7-4.2
	C18.7,32.8,18.7,32.2,19.3,31.7z M30,27.2L27.7,25c1.8,0,4.5-0.2,7.2-0.2l-3,2.3C31.3,27.7,30.5,27.5,30,27.2z M25,2.3
	c9.7,0,17,0.7,20.3,1.2C42,4.2,34.7,4.8,25,4.8S8,4.2,4.7,3.5C8,3,15.3,2.3,25,2.3z M25,47.7c-7.8,0-16.3-0.8-18.2-1.7l-0.3-3.5
	c4.5,0.8,12.3,1.3,18.5,1.3c6,0,13.8-0.5,18.5-1.3L43.2,46C41.3,46.7,32.8,47.7,25,47.7z"/>
</svg>
