<?xml version="1.0" encoding="utf-8"?>
<!-- Generator: Adobe Illustrator 26.0.1, SVG Export Plug-In . SVG Version: 6.00 Build 0)  -->
<svg version="1.1" id="Layer_1" xmlns="http://www.w3.org/2000/svg" xmlns:xlink="http://www.w3.org/1999/xlink" x="0px" y="0px"
	 viewBox="0 0 50 50" style="enable-background:new 0 0 50 50;" xml:space="preserve">
<style type="text/css">
	.st0{fill:#00AD94;}
	.st1{fill:#008878;}
	.st2{fill:#FFC473;}
	.st3{fill:#FF9B00;}
	.st4{fill:#DFCCBE;}
	.st5{fill:#C9AD91;}
	.st6{fill:#FF3D63;}
	.st7{fill:#FF0335;}
</style>
<path class="st0" d="M34.5,24.6v21.9c0,1.9-1.6,3.5-3.5,3.5H19c-1.9,0-3.5-1.6-3.5-3.5V24.6c0-2.8,1.1-5.5,3-7.6l2.6-2.9V0h7.8v14.1
	l2.6,2.9C33.5,19.1,34.5,21.8,34.5,24.6z"/>
<path class="st1" d="M34.5,24.6v21.9c0,1.9-1.6,3.5-3.5,3.5h-6V0h3.9v14.1l2.6,2.9C33.5,19.1,34.5,21.8,34.5,24.6z"/>
<rect x="15.5" y="25.8" class="st2" width="11.9" height="16.9"/>
<rect x="25" y="25.8" class="st3" width="2.3" height="16.9"/>
<rect x="15.5" y="25.8" class="st4" width="11.9" height="4.6"/>
<rect x="25" y="25.8" class="st5" width="2.3" height="4.6"/>
<rect x="20.4" class="st6" width="9.2" height="3.1"/>
<rect x="25" class="st7" width="4.6" height="3.1"/>
</svg>
