<?xml version="1.0" encoding="utf-8"?>
<!-- Generator: Adobe Illustrator 26.0.1, SVG Export Plug-In . SVG Version: 6.00 Build 0)  -->
<svg version="1.1" id="Layer_1" xmlns="http://www.w3.org/2000/svg" xmlns:xlink="http://www.w3.org/1999/xlink" x="0px" y="0px"
	 viewBox="0 0 50 50" style="enable-background:new 0 0 50 50;" xml:space="preserve">
<style type="text/css">
	.st0{fill:#4B7244;}
	.st1{fill:#B4731B;}
	.st2{fill:#FFFFFF;}
	.st3{fill:#689F5F;}
	.st4{fill:#B6002B;}
	.st5{fill:#8AB5E6;}
</style>
<g>
	<path class="st0" d="M18.4,15.7V4.3c0.9-0.3,1.5-1.1,1.5-2.1c0-1.2-1-2.2-2.2-2.2h-1.5H7.4H5.9C4.7,0,3.7,1,3.7,2.2
		c0,1,0.6,1.8,1.5,2.1v11.5c-1.5,1.6-4.4,5.2-4.4,8.5v3.3l2.2,4.8l-2.2,5.5v9.9c0,1.2,1,2.2,2.2,2.2h17.6c1.2,0,2.2-1,2.2-2.2v-9.9
		l-3.7-5.5l3.7-4.8v-3.3C22.8,20.9,19.8,17.3,18.4,15.7z"/>
	<path class="st1" d="M17.6,0h-1.5H7.4H5.9C4.7,0,3.7,1,3.7,2.2c0,1,0.6,1.8,1.5,2.1c0.2,0.1,0.5,0.1,0.7,0.1h1.5h2.2H14h2.2h1.5
		c0.3,0,0.5,0,0.7-0.1c0.9-0.3,1.5-1.1,1.5-2.1C19.9,1,18.9,0,17.6,0z"/>
	<polygon class="st2" points="20.6,37.9 22.8,37.9 22.8,27.6 20.6,27.6 18.4,27.6 5.1,27.6 2.9,27.6 0.7,27.6 0.7,37.9 2.9,37.9 
		5.1,37.9 18.4,37.9 	"/>
	<rect x="9.6" y="4.4" class="st3" width="4.4" height="12.2"/>
	<path class="st4" d="M18.4,24.3c0-1.6-2.2-4.6-3.8-6.1c0,0,0,0,0,0c-0.1-0.1-0.1-0.1-0.1-0.2c0,0,0,0-0.1-0.1c0,0-0.1-0.1-0.1-0.1
		c0,0,0-0.1-0.1-0.1c0,0,0-0.1-0.1-0.1c0,0,0-0.1,0-0.1c0,0,0-0.1,0-0.1c0,0,0-0.1,0-0.1c0,0,0-0.1,0-0.1c0,0,0-0.1,0-0.1
		c0,0,0-0.1,0-0.1c0,0,0-0.1,0-0.1c0,0,0-0.1,0-0.1c0-0.1,0-0.1,0-0.2c0,0,0,0,0,0H9.6c0,0,0,0,0,0c0,0.1,0,0.1,0,0.2
		c0,0,0,0.1,0,0.1c0,0,0,0.1,0,0.1c0,0,0,0.1,0,0.1c0,0,0,0.1,0,0.1c0,0,0,0.1,0,0.1c0,0,0,0.1,0,0.1c0,0,0,0.1,0,0.1
		c0,0,0,0.1,0,0.1c0,0,0,0.1-0.1,0.1c0,0,0,0.1-0.1,0.1c0,0-0.1,0.1-0.1,0.1c0,0,0,0-0.1,0.1c0,0.1-0.1,0.1-0.1,0.2c0,0,0,0,0,0
		c-1.5,1.5-3.8,4.5-3.8,6.1v3.3h13.2V24.3z"/>
	<rect x="5.1" y="37.9" class="st4" width="13.2" height="7.7"/>
	<path class="st5" d="M49.3,27.3V15.5c0-1.2-1-2.2-2.2-2.2H29.4c-1.2,0-2.2,1-2.2,2.2v11.8c0,5.3,3.8,9.8,8.8,10.8v7.5h-3.7
		c-1.2,0-2.2,1-2.2,2.2s1,2.2,2.2,2.2h5.9h5.9c1.2,0,2.2-1,2.2-2.2s-1-2.2-2.2-2.2h-3.7v-7.5C45.5,37,49.3,32.6,49.3,27.3z
		 M31.6,17.7h13.2v7.4H31.6V17.7z"/>
	<path class="st4" d="M31.6,27.3c0,0.8,0.1,1.5,0.4,2.2c0,0,0,0,0,0c0,0,0,0.1,0,0.1c0,0.1,0,0.1,0.1,0.2c0,0,0,0.1,0,0.1
		c0,0.1,0.1,0.1,0.1,0.2c0,0,0,0,0,0.1c0,0.1,0.1,0.2,0.1,0.3c0,0,0,0,0,0c0,0.1,0.1,0.1,0.1,0.2c0,0,0,0.1,0,0.1
		c0,0.1,0.1,0.1,0.1,0.2c0,0,0,0.1,0.1,0.1c0,0.1,0.1,0.1,0.1,0.2c0,0,0,0,0,0c0.1,0.1,0.1,0.2,0.2,0.2c0,0,0,0,0,0.1
		c0,0.1,0.1,0.1,0.1,0.2c0,0,0,0,0.1,0.1c0,0.1,0.1,0.1,0.1,0.2c0,0,0,0,0.1,0.1c0.1,0.1,0.1,0.1,0.2,0.2c0,0,0,0,0,0
		c0.1,0.1,0.1,0.1,0.2,0.2c0,0,0,0,0.1,0.1c0.1,0,0.1,0.1,0.2,0.1c0,0,0.1,0,0.1,0.1c0.1,0,0.1,0.1,0.2,0.1c0,0,0,0,0.1,0
		c0.1,0.1,0.2,0.1,0.2,0.2c0,0,0,0,0,0c0.1,0,0.2,0.1,0.2,0.1c0,0,0.1,0,0.1,0c0.1,0,0.1,0.1,0.2,0.1c0,0,0.1,0,0.1,0
		c0.1,0,0.1,0.1,0.2,0.1c0,0,0,0,0.1,0c0.1,0,0.2,0.1,0.3,0.1c0,0,0,0,0.1,0c0.1,0,0.1,0.1,0.2,0.1c0,0,0.1,0,0.1,0
		c0.1,0,0.1,0,0.2,0.1c0,0,0.1,0,0.1,0c0.1,0,0.2,0,0.2,0.1c0,0,0,0,0,0c0.1,0,0.2,0,0.3,0.1c0,0,0.1,0,0.1,0c0.1,0,0.1,0,0.2,0
		c0,0,0.1,0,0.1,0c0.1,0,0.1,0,0.2,0c0,0,0.1,0,0.1,0c0.1,0,0.2,0,0.3,0c0.1,0,0.2,0,0.3,0c0,0,0.1,0,0.1,0c0.1,0,0.1,0,0.2,0
		c0,0,0.1,0,0.1,0c0.1,0,0.1,0,0.2,0c0,0,0.1,0,0.1,0c0.1,0,0.2,0,0.3-0.1c0,0,0,0,0,0c0.1,0,0.2,0,0.2-0.1c0,0,0.1,0,0.1,0
		c0.1,0,0.1,0,0.2-0.1c0,0,0.1,0,0.1,0c0.1,0,0.1,0,0.2-0.1c0,0,0,0,0.1,0c0.1,0,0.2-0.1,0.3-0.1c0,0,0,0,0.1,0
		c0.1,0,0.1-0.1,0.2-0.1c0,0,0.1,0,0.1,0c0.1,0,0.1-0.1,0.2-0.1c0,0,0.1,0,0.1,0c0.1,0,0.2-0.1,0.2-0.1c0,0,0,0,0,0
		c0.1-0.1,0.2-0.1,0.2-0.2c0,0,0,0,0.1,0c0.1,0,0.1-0.1,0.2-0.1c0,0,0.1,0,0.1-0.1c0.1,0,0.1-0.1,0.2-0.1c0,0,0,0,0.1-0.1
		c0.1-0.1,0.1-0.1,0.2-0.2c0,0,0,0,0,0c0.1-0.1,0.1-0.1,0.2-0.2c0,0,0,0,0.1-0.1c0,0,0.1-0.1,0.1-0.2c0,0,0,0,0.1-0.1
		c0-0.1,0.1-0.1,0.1-0.2c0,0,0,0,0-0.1c0.1-0.1,0.1-0.2,0.2-0.2c0,0,0,0,0,0c0-0.1,0.1-0.1,0.1-0.2c0,0,0-0.1,0.1-0.1
		c0-0.1,0.1-0.1,0.1-0.2c0,0,0-0.1,0-0.1c0-0.1,0.1-0.1,0.1-0.2c0,0,0,0,0,0c0-0.1,0.1-0.2,0.1-0.3c0,0,0,0,0-0.1
		c0-0.1,0.1-0.1,0.1-0.2c0,0,0-0.1,0-0.1c0-0.1,0.1-0.1,0.1-0.2c0,0,0-0.1,0-0.1c0,0,0,0,0,0c0.2-0.7,0.4-1.4,0.4-2.2v-2.2H31.6
		L31.6,27.3L31.6,27.3z"/>
</g>
</svg>
