<?xml version="1.0" encoding="utf-8"?>
<!-- Generator: Adobe Illustrator 26.0.1, SVG Export Plug-In . SVG Version: 6.00 Build 0)  -->
<svg version="1.1" id="Capa_1" xmlns="http://www.w3.org/2000/svg" xmlns:xlink="http://www.w3.org/1999/xlink" x="0px" y="0px"
	 viewBox="0 0 50 50" style="enable-background:new 0 0 50 50;" xml:space="preserve">
<style type="text/css">
	.st0{fill:#A88673;}
	.st1{fill:#DDBFAB;}
	.st2{fill:#BC9A88;}
	.st3{fill:#F2D2C0;}
	.st4{fill:#F9F0C5;}
	.st5{fill:#E2D9B3;}
</style>
<g>
	<path class="st0" d="M31.4,46.8c-0.2,1.6-3,2.9-6.4,2.9c-3.4,0-6.2-1.3-6.4-2.9c0,0.1,0,0.1,0,0.2c0,1.7,2.9,3.1,6.4,3.1
		c3.5,0,6.4-1.4,6.4-3.1C31.4,46.9,31.4,46.8,31.4,46.8z"/>
	<path class="st1" d="M25,49.7c3.4,0,6.2-1.3,6.4-2.9c-0.2-1.4-2.4-2.6-5.2-2.8c0.1,0.6,0.2,1,0.2,1.2c0.4,1.2,0.7,1.9,0.8,2.1
		c0,0,0,0,0,0.1c0,0,0,0,0,0h0c0,0.2-1,0.4-2.2,0.4c-1.2,0-2.2-0.2-2.2-0.4c0,0,0,0,0-0.1c0.1-0.2,0.3-0.9,0.8-2.1
		c0.1-0.2,0.1-0.6,0.2-1.2c-2.9,0.2-5.1,1.4-5.2,2.8C18.8,48.4,21.6,49.7,25,49.7z"/>
	<path class="st2" d="M25,1.3c3.3,0,6-0.3,6-0.7l0,0C31,0.3,28.3,0,25,0s-6,0.3-6,0.7l0,0C19,1,21.7,1.3,25,1.3z"/>
	<path class="st3" d="M22.9,47.2C22.9,47.2,22.8,47.2,22.9,47.2c0,0.3,0.9,0.5,2.1,0.5c1.2,0,2.2-0.2,2.2-0.4h0c0,0,0,0,0,0
		c0,0,0,0,0-0.1c-0.1-0.2-0.3-0.9-0.8-2.1c-0.1-0.2-0.1-0.6-0.2-1.2c-0.5-3.6-1.3-13.9,1-18c-0.7,0.2-1.4,0.4-2.1,0.4
		c-0.7,0-1.4-0.1-2.1-0.4c2.2,4.1,1.5,14.4,1,18c-0.1,0.6-0.2,1-0.2,1.2C23.2,46.3,23,47,22.9,47.2z"/>
	<path class="st4" d="M27.1,25.9c0.2-0.3,0.4-0.7,0.6-0.9c2.4-2.6,3-8.2,3.2-14.9C30.5,10.6,28,11,25,11c-3,0-5.5-0.4-5.9-0.9
		c0.2,6.7,0.8,12.4,3.2,14.9c0.2,0.3,0.4,0.6,0.6,0.9c0.7,0.2,1.4,0.4,2.1,0.4C25.7,26.3,26.4,26.2,27.1,25.9z"/>
	<path class="st5" d="M30.9,10.1c0,0,0-0.1,0-0.1c-0.1-0.1-0.2-0.2-0.2-0.3c0,0,0,0,0,0c0,0-0.1,0-0.2-0.1c0,0,0,0,0,0
		c-0.3-0.1-0.7-0.2-1.3-0.3c0,0,0,0,0,0c-0.1,0-0.2,0-0.3-0.1c0,0,0,0,0,0c-0.1,0-0.2,0-0.3,0c0,0,0,0,0,0c-0.1,0-0.2,0-0.3,0
		c0,0,0,0-0.1,0c-0.1,0-0.2,0-0.3,0c0,0-0.1,0-0.1,0c-0.1,0-0.2,0-0.3,0c0,0-0.1,0-0.1,0c-0.1,0-0.2,0-0.3,0c-0.1,0-0.1,0-0.2,0
		c-0.1,0-0.2,0-0.3,0c-0.1,0-0.1,0-0.2,0c-0.1,0-0.2,0-0.3,0c-0.1,0-0.2,0-0.3,0c-0.1,0-0.1,0-0.2,0c-0.2,0-0.3,0-0.5,0
		c-2.7,0-4.9,0.3-5.7,0.7c-0.1,0.1-0.2,0.2-0.2,0.3c0,0,0,0.1,0,0.1C19.5,10.6,22,11,25,11C28,11,30.5,10.6,30.9,10.1z"/>
	<path class="st3" d="M25,8.9c0.2,0,0.3,0,0.5,0c0.1,0,0.1,0,0.2,0c0.1,0,0.2,0,0.3,0c0.1,0,0.2,0,0.3,0c0.1,0,0.1,0,0.2,0
		c0.1,0,0.2,0,0.3,0c0.1,0,0.1,0,0.2,0c0.1,0,0.2,0,0.3,0c0,0,0.1,0,0.1,0c0.1,0,0.2,0,0.3,0c0,0,0.1,0,0.1,0c0.1,0,0.2,0,0.3,0
		c0,0,0,0,0.1,0c0.1,0,0.2,0,0.3,0c0,0,0,0,0,0c0.1,0,0.2,0,0.3,0c0,0,0,0,0,0c0.1,0,0.2,0,0.3,0.1c0,0,0,0,0,0
		c0.5,0.1,1,0.2,1.3,0.3c0,0,0,0,0,0c0.1,0,0.1,0,0.2,0.1c0,0,0,0,0,0l0,0c0.1,0.1,0.2,0.2,0.2,0.3C31,7,31,3.8,31,0.7
		c0,0.4-2.7,0.7-6,0.7S19,1,19,0.7c0,3.2,0,6.3,0.1,9.3c0.1-0.1,0.2-0.2,0.2-0.3C20.1,9.2,22.3,8.9,25,8.9z"/>
</g>
</svg>
