<?xml version="1.0" encoding="utf-8"?>
<!-- Generator: Adobe Illustrator 26.0.1, SVG Export Plug-In . SVG Version: 6.00 Build 0)  -->
<svg version="1.1" id="Layer_1" xmlns="http://www.w3.org/2000/svg" xmlns:xlink="http://www.w3.org/1999/xlink" x="0px" y="0px"
	 viewBox="0 0 50 50" style="enable-background:new 0 0 50 50;" xml:space="preserve">
<style type="text/css">
	.st0{fill:#E6E6E6;}
	.st1{fill:#FBB03B;}
</style>
<g>
	<polygon class="st0" points="33.5,43.5 34.5,45.3 34.5,49 9.5,49 9.5,45.3 10.6,43.5 	"/>
	<g>
		<path class="st0" d="M38.1,41.2H26.6c-1.1,0-2.1-0.9-2.1-2.1v-23c0-1.1,0.9-2.1,2.1-2.1h11.5c3.2,0,5.7,2.6,5.7,5.7v15.6
			C43.8,38.6,41.2,41.2,38.1,41.2z M28.6,37.1h9.4c0.9,0,1.6-0.7,1.6-1.6V19.9c0-0.9-0.7-1.6-1.6-1.6h-9.4V37.1z"/>
	</g>
	<polygon class="st1" points="10.6,43.5 9.5,10.5 34.5,10.5 33.5,43.5 	"/>
	<path class="st0" d="M34.5,10.5c1.8,0,3.3-1.5,3.3-3.3s-1.5-3.3-3.3-3.3c-0.3,0-0.7,0.1-1,0.2c-0.7-1.8-2.4-3-4.4-3
		c-1.8,0-3.3,1-4.2,2.4c-0.8-0.8-1.8-1.3-3-1.3c-1.3,0-2.5,0.6-3.2,1.5C17.9,2.1,16.3,1,14.4,1c-2,0-3.7,1.2-4.4,2.9
		c-0.2,0-0.3,0-0.5,0c-1.8,0-3.3,1.5-3.3,3.3s1.5,3.3,3.3,3.3H34.5z"/>
</g>
<g>
	<path d="M38.1,13.1h-2.7l0.1-1.7c1.9-0.4,3.4-2.2,3.4-4.2c0-2.4-1.9-4.3-4.3-4.3c-0.1,0-0.3,0-0.4,0c-1-1.8-2.9-2.9-5-2.9
		c-1.7,0-3.3,0.7-4.3,2c-0.8-0.5-1.8-0.8-2.8-0.8c-1.1,0-2.2,0.3-3,1C17.8,0.8,16.2,0,14.4,0c-2.1,0-4,1.1-5,2.9
		c-2.4,0-4.3,2-4.3,4.3c0,2,1.4,3.7,3.3,4.2l1.1,31.8l-1,1.6c-0.1,0.2-0.1,0.3-0.1,0.5V49c0,0.6,0.4,1,1,1h25c0.6,0,1-0.4,1-1v-3.7
		c0-0.2,0-0.3-0.1-0.5l-0.9-1.6l0-1h3.6c3.7,0,6.7-3,6.7-6.7V19.9C44.8,16.2,41.8,13.1,38.1,13.1z M10.5,11.5h23l-1,30.9H11.6
		L10.5,11.5z M35.2,19.2h2.9c0.4,0,0.6,0.3,0.6,0.6v15.6c0,0.4-0.3,0.6-0.6,0.6h-3.4L35.2,19.2z M7.2,7.2c0-1.3,1-2.3,2.3-2.3
		c0.1,0,0.2,0,0.4,0C10.3,5,10.8,4.7,11,4.3c0.6-1.4,2-2.3,3.5-2.3c1.4,0,2.7,0.8,3.4,2.1c0.2,0.3,0.4,0.5,0.8,0.5
		c0.3,0,0.7-0.1,0.9-0.3c0.6-0.7,1.5-1.1,2.5-1.1c0.9,0,1.7,0.4,2.3,1c0.2,0.2,0.5,0.3,0.8,0.3c0.3,0,0.6-0.2,0.7-0.5
		C26.5,2.7,27.7,2,29.1,2c1.6,0,2.9,0.9,3.5,2.4c0.2,0.5,0.7,0.7,1.2,0.6c0.2-0.1,0.5-0.1,0.7-0.1c1.3,0,2.3,1,2.3,2.3
		s-1,2.3-2.3,2.3h-0.1h-25C8.2,9.5,7.2,8.5,7.2,7.2z M33.5,48h-23v-2.4l0.7-1.1h21.7l0.6,1.1L33.5,48L33.5,48z M42.8,35.5
		c0,2.6-2.1,4.7-4.7,4.7h-3.5l0.1-2.1h3.5c1.5,0,2.6-1.2,2.6-2.6V19.9c0-1.5-1.2-2.6-2.6-2.6h-2.8l0.1-2.1h2.7
		c2.6,0,4.7,2.1,4.7,4.7L42.8,35.5L42.8,35.5z"/>
	<path d="M21.9,15.1c-0.6,0-1,0.4-1,1v22.3c0,0.6,0.4,1,1,1c0.6,0,1-0.4,1-1V16.1C22.9,15.5,22.4,15.1,21.9,15.1z"/>
	<path d="M15.7,15.1c-0.6,0-1,0.4-1,1v22.3c0,0.6,0.4,1,1,1s1-0.4,1-1V16.1C16.7,15.5,16.3,15.1,15.7,15.1z"/>
	<path d="M28.1,15.1c-0.6,0-1,0.4-1,1v22.3c0,0.6,0.4,1,1,1c0.5,0,1-0.4,1-1V16.1C29.1,15.5,28.7,15.1,28.1,15.1z"/>
</g>
</svg>
