<?xml version="1.0" encoding="utf-8"?>
<!-- Generator: Adobe Illustrator 26.0.1, SVG Export Plug-In . SVG Version: 6.00 Build 0)  -->
<svg version="1.1" id="Capa_1" xmlns="http://www.w3.org/2000/svg" xmlns:xlink="http://www.w3.org/1999/xlink" x="0px" y="0px"
	 viewBox="0 0 50 50" style="enable-background:new 0 0 50 50;" xml:space="preserve">
<path d="M40.8,50H9.2c-0.5,0-0.8-0.5-0.8-1c0-0.2,0-8.7-1.7-22.8C5,12.3,0.2,1.7,0.2,1.5C0,1.2,0,0.8,0.2,0.5S0.7,0,0.8,0H49
	c0.3,0,0.7,0.2,0.8,0.5s0.2,0.7,0,1c0,0.2-4.8,10.7-6.5,24.7c-1.7,14-1.7,22.7-1.7,22.8C41.8,49.5,41.3,50,40.8,50z M10,47.8h30
	c0-2,0.2-6.8,0.8-13.8H9.2C9.8,41,10,45.8,10,47.8z M9,32h32c0.2-1.8,0.3-3.8,0.7-6c1.3-11.3,4.5-20.3,6-23.8H2.3
	c1.5,3.3,4.7,12.5,6,23.7C8.7,28,8.8,30,9,32z M12.2,24.3c-0.5,0-0.8-0.3-0.8-1c-1-8-4.2-16.7-4.2-16.8C7,6,7.2,5.3,7.7,5.2
	s1,0,1.2,0.5C9,6,12.2,14.7,13,23.2C13.2,23.8,12.8,24.3,12.2,24.3C12.3,24.3,12.2,24.3,12.2,24.3z"/>
</svg>
