<?xml version="1.0" encoding="utf-8"?>
<!-- Generator: Adobe Illustrator 26.0.1, SVG Export Plug-In . SVG Version: 6.00 Build 0)  -->
<svg version="1.1" id="Layer_1" xmlns="http://www.w3.org/2000/svg" xmlns:xlink="http://www.w3.org/1999/xlink" x="0px" y="0px"
	 viewBox="0 0 50 50" style="enable-background:new 0 0 50 50;" xml:space="preserve">
<style type="text/css">
	.st0{fill:#80D3CF;}
	.st1{fill:#FF6A5E;}
	.st2{fill:#F59D40;}
	.st3{fill:#FFFFFF;}
	.st4{fill:#311363;}
</style>
<path class="st0" d="M40.5,13.6l8.4-8.4l-4.1-4.1l-8.4,8.4c-3.3-2-7.7-1.6-10.6,1.2L2,34.5c-1.6,1.6-1.6,4.3,0,5.9L9.6,48
	c1.6,1.6,4.3,1.6,5.9,0l23.8-23.8C42.1,21.4,42.5,17,40.5,13.6z"/>
<rect x="43" y="1.8" transform="matrix(0.7071 -0.7071 0.7071 0.7071 9.9002 33.3908)" class="st1" width="4.6" height="5.9"/>
<rect x="8.3" y="19.7" transform="matrix(0.7071 -0.7071 0.7071 0.7071 -12.4965 21.0877)" class="st2" width="21.8" height="11.8"/>
<g>
	<rect x="21.6" y="19" transform="matrix(0.7071 -0.7071 0.7071 0.7071 -9.3441 22.3931)" class="st3" width="1.5" height="6.9"/>
	
		<rect x="19.5" y="21.1" transform="matrix(0.7071 -0.7071 0.7071 0.7071 -11.4461 21.5225)" class="st3" width="1.5" height="6.9"/>
	
		<rect x="17.4" y="23.2" transform="matrix(0.7071 -0.7071 0.7071 0.7071 -13.5467 20.6521)" class="st3" width="1.5" height="6.9"/>
	
		<rect x="15.3" y="25.3" transform="matrix(0.7071 -0.7071 0.7071 0.7071 -15.6475 19.7824)" class="st3" width="1.5" height="6.9"/>
</g>
<path class="st4" d="M50,5.2L50,5.2l-0.7-0.7L44.8,0l0,0l0,0l-4.3,4.3h0l-4.3,4.3c-1.3-0.7-2.9-1.1-4.4-1.1c-2.5,0-4.8,1-6.6,2.7
	L1.4,34C0.5,35,0,36.2,0,37.5C0,38.8,0.5,40,1.4,41L9,48.6c0.9,0.9,2.2,1.4,3.5,1.4c0,0,0,0,0,0c1.3,0,2.5-0.5,3.5-1.4l23.8-23.8
	c1.5-1.5,2.4-3.5,2.7-5.6c0.2-1.9-0.2-3.8-1-5.4l4.3-4.3l0,0l2.9-2.9L50,5.2L50,5.2z M45.7,7.4l-3.1-3.1l2.2-2.2l3.1,3.1L45.7,7.4z
	 M39.9,14c1.9,3.1,1.4,7.1-1.1,9.7L14.9,47.5c-0.6,0.6-1.5,1-2.4,1c0,0,0,0,0,0c-0.9,0-1.8-0.4-2.4-1L10,47.4l1.1-1.1L10,45.3
	l-1.1,1.1l-1.1-1.1l1.1-1.1l-1.1-1.1l-1.1,1.1l-1.1-1.1l1.1-1.1l-1.1-1.1l-1.1,1.1l-1.1-1.1L4.7,40L3.7,39L2.6,40l-0.1-0.1
	c-0.6-0.6-1-1.5-1-2.4c0-0.9,0.4-1.8,1-2.4l4.8-4.8l5,5l1.1-1.1l-5-5l14.4-14.4l7.3,7.3L15.6,36.5l-1.2-1.2l-1.1,1.1l2.3,2.3
	l16.5-16.5l-8.3-8.3l1.1-1.1l6.4,6.4l1.1-1.1l-6.4-6.4l0.4-0.4C27.8,9.8,29.7,9,31.9,9c1.5,0,2.9,0.4,4.1,1.2l0.5,0.3l3-3l3.1,3.1
	l-3,3L39.9,14z M43.6,9.5l-3.1-3.1l1.1-1.1l3.1,3.1L43.6,9.5z"/>
<g>
	<rect x="31.8" y="24.4" transform="matrix(0.7071 -0.7071 0.7071 0.7071 -7.7985 31.4988)" class="st3" width="4.6" height="1.5"/>
	<path class="st3" d="M37.7,22.7l-1.1-1.1c1.6-1.6,1.9-4.1,0.7-6l1.3-0.8C40.2,17.3,39.8,20.6,37.7,22.7z"/>
</g>
</svg>
