<?xml version="1.0" encoding="utf-8"?>
<!-- Generator: Adobe Illustrator 26.0.1, SVG Export Plug-In . SVG Version: 6.00 Build 0)  -->
<svg version="1.1" id="Capa_1" xmlns="http://www.w3.org/2000/svg" xmlns:xlink="http://www.w3.org/1999/xlink" x="0px" y="0px"
	 viewBox="0 0 50 50" style="enable-background:new 0 0 50 50;" xml:space="preserve">
<g>
	<path d="M49.2,9.6c0.7-0.5,0.8-1.3,0.5-2s-1.2-1.2-2.2-1.2h-9.2l3.5-3.3c0.8-0.8,0.7-2-0.2-2.7c-1-0.7-2.3-0.5-3.2,0.2l-6.2,5.8
		H2.3c-1,0-1.7,0.5-2.2,1.2c-0.3,0.7-0.2,1.5,0.5,2l22,17.9v18.8h-5c-1.3,0-2.3,0.8-2.3,1.8c0,1,1,1.8,2.3,1.8h14.5
		c1.3,0,2.3-0.8,2.3-1.8c0-1-1-1.8-2.3-1.8h-5V27.5L49.2,9.6z M42.2,10.3L25,24.2L7.8,10.3H42.2z"/>
</g>
</svg>
