<?xml version="1.0" encoding="utf-8"?>
<!-- Generator: Adobe Illustrator 26.0.1, SVG Export Plug-In . SVG Version: 6.00 Build 0)  -->
<svg version="1.1" id="Layer_1" xmlns="http://www.w3.org/2000/svg" xmlns:xlink="http://www.w3.org/1999/xlink" x="0px" y="0px"
	 viewBox="0 0 50 50" style="enable-background:new 0 0 50 50;" xml:space="preserve">
<style type="text/css">
	.st0{fill:#FFFCEE;}
	.st1{fill:#E8E3CD;}
	.st2{fill:#F4CF31;}
	.st3{fill:#F2B233;}
	.st4{fill:#F7DF77;}
	.st5{fill:#FCF0BE;}
	.st6{fill:#F9F9D9;}
	.st7{fill:#FFF399;}
	.st8{fill:#FFF0B3;}
	.st9{fill:#FFFFFF;}
</style>
<path class="st0" d="M9.9,6.6v39.1c0,3.3,2.9,4.3,6.2,4.3H31c3.3,0,6.3-1,6.3-4.3V6.6H9.9z"/>
<path class="st1" d="M31,50c3.3,0,6.3-1,6.3-4.3V6.6H9.9"/>
<path class="st2" d="M12.3,13.8v30.4c0,2.7,2.3,3.4,5.1,3.4h12.2c2.7,0,5.2-0.6,5.2-3.4V13.8H12.3z"/>
<path class="st3" d="M29.6,47.6c2.7,0,5.2-0.6,5.2-3.4V13.8H12.3"/>
<g>
	<path class="st4" d="M18,42.8c0,0.7-0.3,1.4-0.8,1.4l0,0c-0.5,0-0.8-0.6-0.8-1.4V11.3c0-0.7,0.3-1.4,0.8-1.4l0,0
		c0.5,0,0.8,0.6,0.8,1.4V42.8z"/>
	<path class="st4" d="M24.4,42.8c0,0.7-0.3,1.4-0.8,1.4l0,0c-0.5,0-0.8-0.6-0.8-1.4V11.3c0-0.7,0.3-1.4,0.8-1.4l0,0
		c0.5,0,0.8,0.6,0.8,1.4V42.8z"/>
	<path class="st4" d="M30.8,42.8c0,0.7-0.3,1.4-0.8,1.4l0,0c-0.5,0-0.8-0.6-0.8-1.4V11.3c0-0.7,0.3-1.4,0.8-1.4l0,0
		c0.5,0,0.8,0.6,0.8,1.4V42.8z"/>
</g>
<circle class="st5" cx="20.1" cy="7.5" r="4.3"/>
<path class="st6" d="M37.8,4.9c0.4-0.5,0.6-1.1,0.6-1.8c0-1.6-1.3-3-3-3c-0.7,0-1.3,0.2-1.8,0.6c-0.6-0.3-1.2-0.6-1.8-0.6
	c-0.9,0-1.7,0.3-2.3,0.9C28.9,0.5,28.1,0,27.2,0c-0.6,0-1.3,0.2-1.8,0.6c-0.3-0.2-0.7-0.2-1.1-0.2c-0.3,0-0.6,0.1-0.8,0.2
	c-0.2-0.1-0.6-0.2-0.8-0.2c-0.4,0-0.7,0.1-1.1,0.2C21.1,0.2,20.5,0,19.8,0c-0.9,0-1.8,0.4-2.3,1.1c-0.6-0.6-1.4-0.9-2.3-0.9
	c-0.7,0-1.4,0.2-1.8,0.6c-0.5-0.4-1.1-0.6-1.8-0.6c-1.6,0-3,1.3-3,3c0,0.6,0.2,1.3,0.6,1.8C8.4,5.7,7.9,6.8,7.9,8
	c0,2.3,1.9,4.3,4.3,4.3c0.6,0,1.1-0.1,1.6-0.3c0.8,1,1.9,1.6,3.3,1.6c1.4,0,2.7-0.7,3.5-1.8c0.5,0.8,1.4,1.4,2.3,1.4
	c0.2,0,0.4,0,0.6-0.1c0.2,0.1,0.4,0.1,0.6,0.1c1,0,1.8-0.6,2.3-1.4c0.8,1.1,2,1.8,3.5,1.8c1.4,0,2.5-0.6,3.3-1.6
	c0.5,0.2,1,0.3,1.6,0.3c2.3,0,4.3-1.9,4.3-4.3C39.1,6.8,38.6,5.7,37.8,4.9z"/>
<circle class="st7" cx="20.7" cy="18.3" r="0.8"/>
<circle class="st3" cx="20" cy="37.5" r="0.8"/>
<g>
	<circle class="st7" cx="19.7" cy="21.5" r="0.5"/>
	<circle class="st7" cx="19.3" cy="31.8" r="0.5"/>
	<circle class="st7" cx="20.6" cy="23.2" r="0.4"/>
</g>
<circle class="st3" cx="19" cy="29.8" r="0.4"/>
<g>
	<circle class="st7" cx="21.6" cy="35.6" r="0.2"/>
	<circle class="st7" cx="19.8" cy="34.3" r="0.2"/>
</g>
<circle class="st3" cx="20.3" cy="32.7" r="0.2"/>
<g>
	<path class="st8" d="M13.9,44c0,0.2-0.2,0.4-0.4,0.4l0,0c-0.2,0-0.4-0.2-0.4-0.4V26.3c0-0.2,0.2-0.4,0.4-0.4l0,0
		c0.2,0,0.4,0.2,0.4,0.4V44z"/>
	<path class="st8" d="M13.9,24c0,0.1-0.1,0.2-0.4,0.2l0,0c-0.3,0-0.4-0.1-0.4-0.2v-5.8c0-0.1,0.1-0.2,0.4-0.2l0,0
		c0.3,0,0.4,0.1,0.4,0.2V24z"/>
</g>
<path class="st5" d="M37.8,4.9c0.4-0.5,0.6-1.1,0.6-1.8c0-1.6-1.3-3-3-3c-0.7,0-1.3,0.2-1.8,0.6c-0.6-0.3-1.2-0.6-1.8-0.6
	c-0.9,0-1.7,0.3-2.3,0.9C28.9,0.5,28.1,0,27.2,0c-0.6,0-1.3,0.2-1.8,0.6c-0.3-0.2-0.7-0.2-1.1-0.2c-0.2,0-0.7,0.1-0.7,0.1v12.4
	c0,0,0.4,0.1,0.6,0.1c1,0,1.8-0.6,2.3-1.4c0.8,1.1,2,1.8,3.5,1.8c1.4,0,2.5-0.6,3.3-1.6c0.5,0.2,1,0.3,1.6,0.3
	c2.3,0,4.3-1.9,4.3-4.3C39.1,6.8,38.6,5.7,37.8,4.9z"/>
<path class="st0" d="M37.2,14.5C37.1,14.5,37.3,14.5,37.2,14.5l0.1,2.4c0,0,0.2,0,0.2,0c1.6,0,3,1.3,3,2.9v15.8c0,1.6-1.4,2.9-3,2.9
	c-0.1,0-0.2,0-0.2,0v2.4c0,0-0.2,0-0.1,0c2.9,0,4.9-2.3,4.9-5.3V19.8C42.1,16.8,40.1,14.5,37.2,14.5z"/>
<g>
	<circle class="st9" cx="11.3" cy="2.6" r="1.3"/>
	<circle class="st9" cx="16.1" cy="3.4" r="1.3"/>
	<circle class="st9" cx="10.9" cy="7.8" r="0.7"/>
</g>
</svg>
