<?xml version="1.0" encoding="utf-8"?>
<!-- Generator: Adobe Illustrator 26.0.1, SVG Export Plug-In . SVG Version: 6.00 Build 0)  -->
<svg version="1.1" id="Layer_1" xmlns="http://www.w3.org/2000/svg" xmlns:xlink="http://www.w3.org/1999/xlink" x="0px" y="0px"
	 viewBox="0 0 50 50" style="enable-background:new 0 0 50 50;" xml:space="preserve">
<style type="text/css">
	.st0{fill:#7B7B53;}
	.st1{fill:#FBB049;}
	.st2{fill:#FFFFFF;}
	.st3{fill:#FA9C1C;}
	.st4{fill:#1D1D1B;}
</style>
<g>
	<rect x="3.9" y="35.1" class="st0" width="12.5" height="3.1"/>
	<rect x="18.7" y="35.1" class="st0" width="12.5" height="3.1"/>
	<rect x="33.6" y="35.1" class="st0" width="12.5" height="3.1"/>
	<path class="st0" d="M16.4,24.2v-5.5c0-2.9-2-5.4-4.7-6v-8H8.6v8c-2.7,0.7-4.7,3.1-4.7,6v3.1"/>
	<path class="st0" d="M31.3,24.2v-5.5c0-2.9-2-5.4-4.7-6v-8h-3.1v8c-2.7,0.7-4.7,3.1-4.7,6v3.1"/>
	<path class="st0" d="M46.1,24.2v-5.5c0-2.9-2-5.4-4.7-6v-8h-3.1v8c-2.7,0.7-4.7,3.1-4.7,6v3.1"/>
</g>
<g>
	<rect x="8.6" y="4.7" class="st1" width="3.1" height="3.1"/>
	<rect x="23.4" y="4.7" class="st1" width="3.1" height="3.1"/>
	<rect x="38.3" y="4.7" class="st1" width="3.1" height="3.1"/>
</g>
<g>
	<rect x="3.9" y="20.3" class="st2" width="12.5" height="5.5"/>
	<rect x="18.7" y="20.3" class="st2" width="12.5" height="5.5"/>
	<rect x="33.6" y="20.3" class="st2" width="12.5" height="5.5"/>
</g>
<g>
	<rect x="2.3" y="23.4" class="st3" width="3.1" height="14.9"/>
	<rect x="44.5" y="23.4" class="st3" width="3.1" height="14.9"/>
	<rect x="0.8" y="25.8" class="st3" width="48.5" height="9.4"/>
</g>
<polyline class="st1" points="0.8,35.1 0.8,25.8 49.2,25.8 "/>
<rect x="0.8" y="38.2" class="st3" width="48.5" height="9.4"/>
<polyline class="st1" points="0.8,47.6 0.8,38.2 49.2,38.2 "/>
<g>
	<rect x="5.5" y="40.6" class="st4" width="1.6" height="1.5"/>
	<rect x="5.5" y="43.8" class="st4" width="1.6" height="1.5"/>
	<rect x="43" y="40.6" class="st4" width="1.6" height="1.5"/>
	<rect x="43" y="43.8" class="st4" width="1.6" height="1.5"/>
	<rect x="5.5" y="28.1" class="st4" width="1.6" height="1.5"/>
	<rect x="5.5" y="31.3" class="st4" width="1.6" height="1.5"/>
	<rect x="43" y="28.1" class="st4" width="1.6" height="1.5"/>
	<rect x="43" y="31.3" class="st4" width="1.6" height="1.5"/>
	<rect x="11.7" y="39.9" class="st4" width="10.9" height="1.5"/>
	<rect x="17.2" y="43" class="st4" width="3.1" height="1.5"/>
	<rect x="20.3" y="44.5" class="st4" width="3.1" height="1.5"/>
	<rect x="27.3" y="41.4" class="st4" width="3.9" height="1.5"/>
	<rect x="32.8" y="43.8" class="st4" width="3.1" height="1.5"/>
	<rect x="35.9" y="42.2" class="st4" width="2.3" height="1.5"/>
	<rect x="10.9" y="30.5" class="st4" width="1.6" height="1.5"/>
	<rect x="12.5" y="28.9" class="st4" width="10.9" height="1.5"/>
	<rect x="23.4" y="27.3" class="st4" width="1.6" height="1.5"/>
	<rect x="25" y="32" class="st4" width="9.4" height="1.5"/>
	<rect x="33.6" y="28.9" class="st4" width="3.1" height="1.5"/>
	<rect x="36.7" y="30.5" class="st4" width="3.1" height="1.5"/>
	<rect x="7" y="1.6" class="st4" width="6.3" height="1.5"/>
	<rect x="21.9" y="1.6" class="st4" width="6.3" height="1.5"/>
	<rect x="36.7" y="1.6" class="st4" width="6.3" height="1.5"/>
	<rect x="7" y="21.9" class="st4" width="1.6" height="1.5"/>
	<rect x="9.4" y="21.9" class="st4" width="1.6" height="1.5"/>
	<rect x="11.7" y="21.9" class="st4" width="1.6" height="1.5"/>
	<rect x="21.9" y="21.9" class="st4" width="1.6" height="1.5"/>
	<rect x="24.2" y="21.9" class="st4" width="1.6" height="1.5"/>
	<rect x="26.6" y="21.9" class="st4" width="1.6" height="1.5"/>
	<rect x="41.4" y="21.9" class="st4" width="1.6" height="1.5"/>
	<rect x="39.1" y="21.9" class="st4" width="1.6" height="1.5"/>
	<rect x="36.7" y="21.9" class="st4" width="1.6" height="1.5"/>
	<path class="st4" d="M12.5,12.1V3.9H7.8v8.2c-2.8,1-4.7,3.6-4.7,6.6v3.1h1.5v-0.8h11v3.1h1.5v-5.5C17.2,15.7,15.3,13.1,12.5,12.1z
		 M10.9,5.4V7H9.3V5.4C9.3,5.4,10.9,5.4,10.9,5.4z M15.6,19.5h-11v-0.8c0-2.5,1.7-4.7,4.1-5.3l0.6-0.1V8.6h1.6v4.7l0.6,0.1
		c2.4,0.6,4.1,2.8,4.1,5.3L15.6,19.5L15.6,19.5z"/>
	<path class="st4" d="M27.3,12.1V3.9h-4.7v8.2c-2.8,1-4.7,3.6-4.7,6.6v5.5h1.5v-3.1h11v3.1H32v-5.5C32,15.7,30.1,13.1,27.3,12.1z
		 M25.8,5.4V7h-1.6V5.4C24.2,5.4,25.8,5.4,25.8,5.4z M30.5,19.5h-11v-0.8c0-2.5,1.7-4.7,4.1-5.3l0.6-0.1V8.6h1.6v4.7l0.6,0.1
		c2.4,0.6,4.1,2.8,4.1,5.3L30.5,19.5L30.5,19.5z"/>
	<path class="st4" d="M42.2,12.1V3.9h-4.7v8.2c-2.8,1-4.7,3.6-4.7,6.6v5.5h1.5v-3.1h11v0.8h1.5v-3.1C46.9,15.7,45,13.1,42.2,12.1z
		 M40.7,5.4V7h-1.6V5.4C39.1,5.4,40.7,5.4,40.7,5.4z M34.4,19.5v-0.8c0-2.5,1.7-4.7,4.1-5.3l0.6-0.1V8.6h1.6v4.7l0.6,0.1
		c2.4,0.6,4.1,2.8,4.1,5.3v0.8L34.4,19.5L34.4,19.5z"/>
</g>
<g>
	<rect x="6.2" y="17.2" class="st2" width="3.9" height="1.5"/>
	<rect x="21.1" y="17.2" class="st2" width="3.9" height="1.5"/>
	<rect x="35.9" y="17.2" class="st2" width="3.9" height="1.5"/>
</g>
<path class="st4" d="M50,35.9V25h-1.6v-2.3h-4.7V25H6.2v-2.3H1.6V25H0v10.9h1.6v1.6H0v10.9h50V37.5h-1.6v-1.6H50z M45.3,24.2h1.6V25
	h-1.6V24.2z M3.1,24.2h1.6V25H3.1C3.1,25,3.1,24.2,3.1,24.2z M48.5,39v3.2h-1.6v1.5h1.6v3.2H1.5v-0.8h1.6v-1.5H1.5V39L48.5,39
	L48.5,39z M3.1,37.5v-1.6h1.6v1.6H3.1z M6.2,37.5v-1.6h9.4v1.6H6.2z M17.2,37.5v-1.6H18v1.6H17.2z M19.5,37.5v-1.6h11v1.6H19.5z
	 M32,37.5v-1.6h0.8v1.6H32z M34.4,37.5v-1.6h9.4v1.6H34.4z M45.3,37.5v-1.6h1.6v1.6H45.3z M1.5,34.4v-5.5h1.6v-1.5H1.5v-0.8h46.9
	v4.7h-1.6v1.5h1.6v1.6H1.5z"/>
</svg>
