<?xml version="1.0" encoding="utf-8"?>
<!-- Generator: Adobe Illustrator 26.0.1, SVG Export Plug-In . SVG Version: 6.00 Build 0)  -->
<svg version="1.1" id="Layer_1" xmlns="http://www.w3.org/2000/svg" xmlns:xlink="http://www.w3.org/1999/xlink" x="0px" y="0px"
	 viewBox="0 0 50 50" style="enable-background:new 0 0 50 50;" xml:space="preserve">
<style type="text/css">
	.st0{fill:#FFFFFF;}
	.st1{fill:#FF8600;}
	.st2{fill:#E07200;}
	.st3{fill:#89C7EA;}
	.st4{fill:#00B5EC;}
</style>
<g>
	<polygon class="st0" points="19.4,2.8 2.8,2.8 2.8,5.6 2.8,15.7 19.4,15.7 36.1,15.7 36.1,5.6 36.1,2.8 	"/>
	<polygon class="st1" points="19.4,13.9 2.8,13.9 2.8,47.2 19.4,47.2 36.1,47.2 36.1,13.9 	"/>
	<rect x="19.4" y="13.9" class="st2" width="16.7" height="33.3"/>
	<g>
		<path class="st3" d="M47.2,11.1h-8.3V2.8c0-1.5-1.2-2.8-2.8-2.8H19.4H2.8C1.2,0,0,1.2,0,2.8v44.4C0,48.8,1.2,50,2.8,50h16.7h16.7
			c1.5,0,2.8-1.2,2.8-2.8v-2.8h8.3c1.5,0,2.8-1.2,2.8-2.8V13.9C50,12.4,48.8,11.1,47.2,11.1z M33.3,44.4H19.4H5.6V5.6h13.9h13.9
			V44.4z M44.4,38.9h-5.6V16.7h5.6V38.9z"/>
		<path class="st4" d="M47.2,11.1h-8.3V2.8c0-1.5-1.2-2.8-2.8-2.8H19.4v5.6h13.9v38.9H19.4V50h16.7c1.5,0,2.8-1.2,2.8-2.8v-2.8h8.3
			c1.5,0,2.8-1.2,2.8-2.8V13.9C50,12.4,48.8,11.1,47.2,11.1z M44.4,38.9h-5.6V16.7h5.6V38.9z"/>
	</g>
</g>
</svg>
