<?xml version="1.0" encoding="utf-8"?>
<!-- Generator: Adobe Illustrator 26.0.1, SVG Export Plug-In . SVG Version: 6.00 Build 0)  -->
<svg version="1.1" id="Layer_1" xmlns="http://www.w3.org/2000/svg" xmlns:xlink="http://www.w3.org/1999/xlink" x="0px" y="0px"
	 viewBox="0 0 50 50" style="enable-background:new 0 0 50 50;" xml:space="preserve">
<style type="text/css">
	.st0{fill:#BDCED4;}
	.st1{fill:#FF2E48;}
</style>
<rect x="21.9" y="1" class="st0" width="6.1" height="6.2"/>
<g>
	<path class="st1" d="M33.4,19.7c0-2.9-2.4-5.3-5.3-5.3V7.2h-6.1v7.2c-2.9,0-5.3,2.4-5.3,5.3V22h16.8L33.4,19.7L33.4,19.7z"/>
	<rect x="16.6" y="37.3" class="st1" width="16.8" height="11.7"/>
</g>
<rect x="16.6" y="22" class="st0" width="16.8" height="15.2"/>
<path d="M15.6,49c0,0.6,0.4,1,1,1h16.8c0.5,0,1-0.4,1-1V19.7c0-3.1-2.3-5.8-5.3-6.2V7.2V1c0-0.6-0.4-1-1-1h-6.1c-0.5,0-1,0.4-1,1
	v6.2v6.2c-3,0.5-5.3,3.1-5.3,6.2L15.6,49L15.6,49z M17.6,23h14.8v13.2H17.6V23z M22.9,2h4.1v4.2h-4.1V2L22.9,2z M17.6,19.7
	c0-2.4,1.9-4.3,4.3-4.3c0.5,0,1-0.4,1-1V8.2h4.1v6.2c0,0.6,0.4,1,1,1c2.4,0,4.3,1.9,4.3,4.3V21H17.6V19.7z M32.4,48H17.6v-9.8h14.8
	V48z"/>
<path d="M26.6,33.1h-0.3c-0.5,0-1,0.4-1,1s0.4,1,1,1h0.3c0.5,0,1-0.4,1-1S27.2,33.1,26.6,33.1z"/>
<path d="M23.4,33.1h-3.5c-0.6,0-1,0.4-1,1s0.4,1,1,1h3.5c0.6,0,1-0.4,1-1S23.9,33.1,23.4,33.1z"/>
</svg>
