<?xml version="1.0" encoding="utf-8"?>
<!-- Generator: Adobe Illustrator 26.0.1, SVG Export Plug-In . SVG Version: 6.00 Build 0)  -->
<svg version="1.1" id="Capa_1" xmlns="http://www.w3.org/2000/svg" xmlns:xlink="http://www.w3.org/1999/xlink" x="0px" y="0px"
	 viewBox="0 0 50 50" style="enable-background:new 0 0 50 50;" xml:space="preserve">
<style type="text/css">
	.st0{fill:#F77E21;}
	.st1{fill:#E1757B;}
	.st2{fill:#983823;}
</style>
<g>
	<g id="XMLID_35_">
		<g>
			<path class="st0" d="M25,32.1c2.1,0,3.8,1.7,3.8,3.8c0,2.1-1.7,3.8-3.8,3.8c-2.1,0-3.8-1.7-3.8-3.8C21.2,33.9,22.9,32.1,25,32.1z
				"/>
			<rect x="23" y="3.3" class="st1" width="4" height="3.6"/>
			<path class="st2" d="M32.1,27.8c1.2,1,2,3.3,1.9,4.8l-1.7,14H17.8l-1.7-14c-0.2-1.5,0.7-3.8,1.9-4.8l1.6-1.4
				c1.9-1.7,3.4-5,3.4-7.6v-8.6h4v8.6c0,2.6,1.5,5.9,3.4,7.6L32.1,27.8z M32.1,36c0-3.9-3.2-7.1-7.1-7.1c-3.9,0-7.1,3.2-7.1,7.1
				c0,3.9,3.2,7.1,7.1,7.1C28.9,43.1,32.1,39.9,32.1,36z"/>
			<path d="M34.3,25.3c2,1.7,3.3,5.1,3,7.8l-1.9,15.5c-0.1,0.8-0.8,1.5-1.6,1.5H16.3c-0.8,0-1.5-0.6-1.6-1.5l-1.9-15.5
				c-0.3-2.6,1-6,3-7.8l1.6-1.4c1.2-1.1,2.3-3.4,2.3-5.1V1.7c0-0.9,0.7-1.7,1.7-1.7h7.4c0.9,0,1.7,0.7,1.7,1.7v17.2
				c0,1.6,1.1,4,2.3,5.1L34.3,25.3z M33.9,32.7c0.2-1.5-0.7-3.8-1.9-4.8l-1.6-1.4c-1.9-1.7-3.4-5-3.4-7.6v-8.6h-4v8.6
				c0,2.6-1.5,5.9-3.4,7.6l-1.6,1.4c-1.2,1-2,3.3-1.9,4.8l1.7,14h14.4L33.9,32.7z M27,6.9V3.3h-4v3.6H27z"/>
			<path d="M25,28.8c3.9,0,7.1,3.2,7.1,7.1c0,3.9-3.2,7.1-7.1,7.1c-3.9,0-7.1-3.2-7.1-7.1C17.9,32,21.1,28.8,25,28.8z M28.8,36
				c0-2.1-1.7-3.8-3.8-3.8c-2.1,0-3.8,1.7-3.8,3.8c0,2.1,1.7,3.8,3.8,3.8C27.1,39.8,28.8,38.1,28.8,36z"/>
		</g>
	</g>
</g>
</svg>
