<?xml version="1.0" encoding="utf-8"?>
<!-- Generator: Adobe Illustrator 26.0.1, SVG Export Plug-In . SVG Version: 6.00 Build 0)  -->
<svg version="1.1" id="Layer_1" xmlns="http://www.w3.org/2000/svg" xmlns:xlink="http://www.w3.org/1999/xlink" x="0px" y="0px"
	 viewBox="0 0 50 50" style="enable-background:new 0 0 50 50;" xml:space="preserve">
<style type="text/css">
	.st0{fill:#E6E6E6;}
	.st1{fill:#F4C44E;}
	.st2{fill:#E6E400;}
</style>
<g transform="translate(-1)">
	<path class="st0" d="M24.3,15.5c0,1-0.9,1.9-2,1.7c-0.8-0.1-1.4-0.9-1.4-1.8V7c0-1-0.8-1.9-1.9-1.9h-1.6h-0.9V4.5
		c0-1.5,1.2-2.8,2.7-2.7c0.6,0,1.2,0.3,1.6,0.7C20.9,1.1,22,0,23.4,0s2.5,1.1,2.6,2.4c0.5-0.4,1.1-0.7,1.7-0.7
		c0.8,0,1.4,0.3,1.9,0.8c0.4-1.1,1.4-1.8,2.7-1.7c1.4,0.1,2.3,1.3,2.3,2.7v1.6h-8.5c-1,0-1.9,0.8-1.9,1.9L24.3,15.5L24.3,15.5z"/>
	<path class="st1" d="M31.3,45c-1.8-5-1-10.4,1.3-15.4c3.3-7.4,2.9-24.4,2.9-24.4h-0.9h-8.5c-1,0-1.9,0.8-1.9,1.9v8.4
		c0,0.9-0.6,1.7-1.4,1.8c-1.1,0.2-2-0.7-2-1.7V7c0-1-0.8-1.9-1.9-1.9h-1.6h-0.9h0c0,0-0.4,17.1,2.9,24.4c2.3,5,3.1,10.4,1.3,15.4
		c-0.9,2.4-1.3,4.5-2.5,5h15.5C32.6,49.5,32.2,47.4,31.3,45"/>
	<g>
		<polygon class="st2" points="31.1,23.3 28.6,25.9 29.4,29.3 26,27.6 22.5,29.3 23.4,25.9 20.8,23.3 24.2,22.4 26,19.8 27.7,22.4 
					"/>
		<path class="st2" d="M31.5,45.7H20.5c-0.7,2.1-1.2,3.9-2.2,4.3h15.5C32.7,49.6,32.3,47.8,31.5,45.7"/>
	</g>
</g>
</svg>
