<?xml version="1.0" encoding="utf-8"?>
<!-- Generator: Adobe Illustrator 26.0.1, SVG Export Plug-In . SVG Version: 6.00 Build 0)  -->
<svg version="1.1" id="Layer_1" xmlns="http://www.w3.org/2000/svg" xmlns:xlink="http://www.w3.org/1999/xlink" x="0px" y="0px"
	 viewBox="0 0 50 50" style="enable-background:new 0 0 50 50;" xml:space="preserve">
<style type="text/css">
	.st0{fill:#B7364A;}
	.st1{fill:#AF6518;}
	.st2{fill:#386499;}
	.st3{fill:#491E17;}
</style>
<g>
	<rect x="7.3" y="5.9" class="st0" width="3.9" height="4.8"/>
	<rect x="23" y="5.9" class="st0" width="3.9" height="4.8"/>
	<rect x="38.8" y="5.9" class="st0" width="3.9" height="4.8"/>
</g>
<g>
	<path class="st1" d="M15.3,22.4v-0.9c0-1.8-0.8-3.3-2.2-4.3c-1.2-0.9-2-2.4-2-4.1v-2.3H7.3v2.3c0,1.6-0.8,3.1-2,4.1
		c-1.3,1-2.2,2.6-2.2,4.3v0.9H15.3L15.3,22.4z"/>
	<path class="st1" d="M31.1,22.4v-0.9c0-1.8-0.8-3.3-2.2-4.3c-1.2-0.9-2-2.4-2-4.1v-2.3H23v2.3c0,1.6-0.8,3.1-2,4.1
		c-1.3,1-2.2,2.6-2.2,4.3v0.9H31.1L31.1,22.4z"/>
	<path class="st1" d="M46.9,22.4v-0.9c0-1.8-0.8-3.3-2.2-4.3c-1.2-0.9-2-2.4-2-4.1v-2.3h-3.9v2.3c0,1.6-0.8,3.1-2,4.1
		c-1.3,1-2.2,2.6-2.2,4.3v0.9H46.9L46.9,22.4z"/>
</g>
<polyline class="st2" points="7.1,44.1 0.7,44.1 0.7,22.4 49.3,22.4 49.3,44.1 9.1,44.1 "/>
<rect x="17.2" y="26.3" class="st1" width="15.6" height="3.3"/>
<g>
	<path class="st3" d="M47.6,21.6v-0.2c0-1.9-0.9-3.7-2.4-4.9c-1.1-0.8-1.7-2.1-1.7-3.5v-1.6V5.2h-5.4v6.3v1.6c0,1.4-0.6,2.6-1.7,3.5
		c-1.6,1.2-2.4,3-2.4,4.9v0.2h-2.1v-0.2c0-1.9-0.9-3.7-2.4-4.9c-1.1-0.8-1.7-2.1-1.7-3.5v-1.6V5.2h-5.4v6.3v1.6
		c0,1.4-0.6,2.6-1.7,3.5c-1.6,1.2-2.4,3-2.4,4.9v0.2h-2.1v-0.2c0-1.9-0.9-3.7-2.4-4.9c-1.1-0.8-1.7-2.1-1.7-3.5v-1.6l0-6.3H6.5v6.3
		v1.6c0,1.4-0.6,2.6-1.7,3.5c-1.6,1.2-2.4,3-2.4,4.9v0.2H0v23.2h7.1v-1.5H1.5V23.1h0.9h13.7h2.1h13.7h2.1h13.7h0.9v20.2H47v-9h-1.5
		v9h-1.5v-6h-1.5v6H9.1v1.5H50V21.6H47.6z M10.5,6.7l0,3.3H8V6.7H10.5z M3.9,21.6v-0.2c0-1.5,0.7-2.8,1.9-3.7l0,0
		C7.2,16.6,8,14.9,8,13.1v-1.6h2.4v1.6c0,1.8,0.8,3.5,2.3,4.6l0,0c1.2,0.9,1.9,2.3,1.9,3.7v0.2H3.9z M26.2,6.7V10h-2.4V6.7H26.2z
		 M19.6,21.6v-0.2c0-1.5,0.7-2.8,1.9-3.7l0,0c1.4-1.1,2.3-2.8,2.3-4.6v-1.6h2.4v1.6c0,1.8,0.8,3.5,2.3,4.6l0,0
		c1.2,0.9,1.9,2.3,1.9,3.7v0.2H19.6z M42,6.7V10h-2.4V6.7H42z M35.4,21.6v-0.2c0-1.5,0.7-2.8,1.9-3.7l0,0c1.4-1.1,2.3-2.8,2.3-4.6
		v-1.6H42v1.6c0,1.8,0.8,3.5,2.3,4.6l0,0c1.2,0.9,1.9,2.3,1.9,3.7v0.2H35.4z"/>
	<path class="st3" d="M16.4,25.6v4.8h17.1v-4.8H16.4z M32.1,28.9H17.9v-1.8h14.2V28.9z"/>
</g>
</svg>
