<?xml version="1.0" encoding="utf-8"?>
<!-- Generator: Adobe Illustrator 26.0.1, SVG Export Plug-In . SVG Version: 6.00 Build 0)  -->
<svg version="1.1" id="Layer_1" xmlns="http://www.w3.org/2000/svg" xmlns:xlink="http://www.w3.org/1999/xlink" x="0px" y="0px"
	 viewBox="0 0 50 50" style="enable-background:new 0 0 50 50;" xml:space="preserve">
<style type="text/css">
	.st0{fill:#B9BDE6;}
	.st1{fill:#ABB0E0;}
	.st2{fill:#F7CF6D;}
	.st3{fill:#F9DE8F;}
	.st4{fill:#F4C253;}
</style>
<path class="st0" d="M20.3,49.2h9.4c1.3,0,2.3-1.1,2.3-2.3V25c0-3.1-1.1-4.7-1.8-6c-0.8-1.3-2.5-4.1-2.5-6.8V2.3
	c0-0.8-0.6-1.4-1.4-1.4h-2.6c-0.8,0-1.4,0.6-1.4,1.4v9.9c0,2.8-1.7,5.5-2.5,6.8c-0.8,1.2-1.8,2.9-1.8,6v21.8
	C17.9,48.1,19,49.2,20.3,49.2z"/>
<path class="st1" d="M30.3,19c-0.8-1.3-2.5-4.1-2.5-6.8V2.3c0-0.8-0.6-1.4-1.4-1.4h-2.4c0.8,0,1.4,0.6,1.4,1.4v9.9
	c0,2.8,1.7,5.5,2.5,6.8c0.8,1.2,1.8,2.9,1.8,6v21.8c0,1.3-1.1,2.3-2.3,2.3h2.4c1.3,0,2.3-1.1,2.3-2.3V25C32.1,21.9,31,20.3,30.3,19z
	"/>
<path class="st2" d="M23.7,9.2h2.6c0.8,0,1.4,0.6,1.4,1.4V2.3c0-0.8-0.6-1.4-1.4-1.4h-2.6c-0.8,0-1.4,0.6-1.4,1.4v8.4
	C22.3,9.8,22.9,9.2,23.7,9.2z"/>
<polygon class="st3" points="27.7,10.9 24.9,13.7 22.3,11 22.3,6.5 24.9,9.2 27.7,6.4 "/>
<rect x="17.9" y="27.6" class="st2" width="14.2" height="13"/>
<rect x="29.7" y="27.6" class="st4" width="2.4" height="13"/>
<circle class="st3" cx="24.9" cy="34" r="3.1"/>
<path d="M31,18.6L31,18.6c-0.8-1.3-2.4-3.9-2.4-6.4V2.3c0-1.2-1-2.3-2.3-2.3h-2.6c-1.2,0-2.3,1-2.3,2.3v9.9c0,0.9-0.2,1.9-0.6,3
	c-0.2,0.4,0,0.9,0.5,1.1c0.4,0.2,0.9,0,1.1-0.5c0.4-1,0.6-1.9,0.7-2.8l1.3,1.3c0.2,0.2,0.4,0.2,0.6,0.2c0.2,0,0.4-0.1,0.6-0.2
	l1.4-1.4c0.2,2.7,1.8,5.3,2.6,6.5l0,0.1c0.7,1.2,1.7,2.7,1.7,5.5v1.8H18.7V25c0-1.2,0.2-2.3,0.5-3.2c0.2-0.4-0.1-0.9-0.5-1
	c-0.4-0.2-0.9,0.1-1,0.5c-0.4,1.2-0.6,2.4-0.6,3.8v21.8c0,1.8,1.4,3.2,3.2,3.2h9.4c1.7,0,3.2-1.4,3.2-3.2V25
	C32.9,21.7,31.8,19.9,31,18.6z M23.7,1.6h2.6c0.3,0,0.6,0.3,0.6,0.6V6l-2,2l-1.9-1.9V2.3C23.1,1.9,23.4,1.6,23.7,1.6z M24.9,12.6
	l-1.9-1.9V8.5l1.3,1.3c0.2,0.2,0.4,0.2,0.6,0.2c0.2,0,0.4-0.1,0.6-0.2l1.4-1.4v2.2L24.9,12.6z M31.3,28.4v11.3H18.7V28.4H31.3z
	 M29.7,48.4h-9.4c-0.9,0-1.6-0.7-1.6-1.6v-5.4h12.5v5.4C31.3,47.7,30.6,48.4,29.7,48.4z"/>
<path d="M24.9,37.9c2.2,0,3.9-1.8,3.9-3.9S27.1,30,24.9,30S21,31.8,21,34S22.8,37.9,24.9,37.9z M24.9,31.7c1.3,0,2.3,1,2.3,2.3
	s-1,2.3-2.3,2.3s-2.3-1-2.3-2.3C22.7,32.7,23.7,31.7,24.9,31.7z"/>
</svg>
