<?xml version="1.0" encoding="utf-8"?>
<!-- Generator: Adobe Illustrator 26.0.1, SVG Export Plug-In . SVG Version: 6.00 Build 0)  -->
<svg version="1.1" id="Layer_1" xmlns="http://www.w3.org/2000/svg" xmlns:xlink="http://www.w3.org/1999/xlink" x="0px" y="0px"
	 viewBox="0 0 50 50" style="enable-background:new 0 0 50 50;" xml:space="preserve">
<style type="text/css">
	.st0{fill:#E0A03D;}
	.st1{fill:#F6E088;}
	.st2{fill:#491E17;}
</style>
<path class="st0" d="M29.3,10.9h-6.2v2.6c0,1-0.8,1.8-1.8,1.8c-1,0-1.8-0.8-1.8-1.8v-2.6h-4.2c0,0,2.4,11.7,2.4,22.2
	c0,3-0.7,10.3-1.1,14c0,0,0,0,0,0c0,0.1,0,0.1,0,0.2c0,1.1,0.9,2,2,2h0h13.1h0c1.1,0,2-0.9,2-2c0-0.1,0-0.1,0-0.2c0,0,0,0,0,0
	c-0.4-3.7-1.1-11-1.1-14c0-10.4,2.4-22.1,2.4-22.2h-3.4"/>
<g>
	<path class="st1" d="M16.5,47.1c0,0.1,0,0.1,0,0.2c0,1.1,0.9,2,2,2h0h3.2v-9.5c0-1.9-1.5-3.4-3.4-3.4c-0.3,0-0.5,0-0.8,0.1
		C17.2,39.9,16.8,44.4,16.5,47.1C16.5,47.1,16.5,47.1,16.5,47.1z"/>
	<path class="st1" d="M28.4,49.3v-9.5c0-1.9-1.5-3.4-3.4-3.4c-1.9,0-3.4,1.5-3.4,3.4v9.5H28.4L28.4,49.3z"/>
	<path class="st1" d="M31.6,49.3L31.6,49.3c1.1,0,2-0.9,2-2c0-0.1,0-0.1,0-0.2c0,0,0,0,0,0c-0.3-2.7-0.7-7.2-1-10.7
		c-0.2-0.1-0.5-0.1-0.8-0.1c-1.9,0-3.4,1.5-3.4,3.4v9.5H31.6L31.6,49.3z"/>
</g>
<path class="st2" d="M36,6.1h-0.7C35,2.7,32.1,0,28.5,0c-2.8,0-5.2,1.7-6.2,4C21.4,2.8,20,2,18.4,2c-2.4,0-4.5,1.8-4.8,4.1
	c-1.3,0.2-2.4,1.4-2.4,2.8c0,1.5,1.3,2.8,2.8,2.8h0.6c0.5,2.5,2.2,12.4,2.2,21.4c0,2.8-0.7,9.8-1,13.2c0,0,0,0.1,0,0.1
	c0,0,0,0.1,0,0.1c0,0.1,0,0.1,0,0.2c0,0,0,0,0,0c0,0.1,0,0.1,0,0.2l0,0c0,0.1,0,0.2,0,0.3c0,1.5,1.2,2.7,2.7,2.7h2.4h1.5h5.3h1.5
	h2.4c0.1,0,0.1,0,0.2,0l0,0l0.1,0l0.1,0l0,0c1.4-0.1,2.4-1.3,2.4-2.7c0-0.1,0-0.2,0-0.3l0,0c0-0.1,0-0.1,0-0.2c0,0,0,0,0,0
	c0-0.1,0-0.2,0-0.2c0,0,0,0,0,0c0-0.1,0-0.1,0-0.2c-0.4-3.5-1-10.4-1-13.2c0-9,1.8-18.9,2.2-21.4H36c1.5,0,2.8-1.3,2.8-2.8
	C38.8,7.3,37.5,6.1,36,6.1z M18.4,48.5c-0.7,0-1.2-0.5-1.2-1.2c0,0,0-0.1,0-0.1l0,0h0c0.3-2.7,0.7-6.8,0.9-10.1c0,0,0,0,0.1,0
	c1.5,0,2.6,1.2,2.6,2.6v8.8H18.4L18.4,48.5z M22.4,48.5v-8.8c0-1.5,1.2-2.6,2.6-2.6c1.5,0,2.6,1.2,2.6,2.6v8.8H22.4L22.4,48.5z
	 M32.8,47.4c-0.1,0.6-0.6,1.1-1.2,1.1h-2.4v-8.8c0-1.5,1.2-2.6,2.6-2.6c0,0,0,0,0.1,0c0.2,3.3,0.6,7.4,0.9,10.1l0,0c0,0,0,0.1,0,0.1
	C32.8,47.3,32.8,47.4,32.8,47.4z M36,10.2h-0.3h-4.4h0v1.5h0h2.5c-0.5,2.9-2.2,12.6-2.2,21.4c0,0.7,0,1.5,0.1,2.5
	c-1.4,0-2.6,0.7-3.4,1.8c-0.7-1.1-2-1.8-3.4-1.8c-1.4,0-2.6,0.7-3.4,1.8c-0.7-1.1-2-1.8-3.3-1.8c0.1-1,0.1-1.8,0.1-2.5
	c0-8.9-1.7-18.5-2.2-21.4h2.5v1.8c0,1.4,1.2,2.6,2.6,2.6s2.6-1.2,2.6-2.6v-1.8h5.4h0v-1.5h0h-6.9v3.3c0,0.6-0.5,1.1-1.1,1.1
	s-1.1-0.5-1.1-1.1v-3.3H14c-0.7,0-1.3-0.6-1.3-1.3s0.6-1.3,1.3-1.3h1V6.8c0-1.9,1.5-3.4,3.4-3.4c1.9,0,3.4,1.5,3.4,3.4h1.5
	c0-2.9,2.4-5.3,5.3-5.3c2.9,0,5.3,2.4,5.3,5.3v0.7H36c0.7,0,1.3,0.6,1.3,1.3C37.3,9.6,36.7,10.2,36,10.2z"/>
</svg>
