<?xml version="1.0" encoding="utf-8"?>
<!-- Generator: Adobe Illustrator 26.0.1, SVG Export Plug-In . SVG Version: 6.00 Build 0)  -->
<svg version="1.1" id="Layer_1" xmlns="http://www.w3.org/2000/svg" xmlns:xlink="http://www.w3.org/1999/xlink" x="0px" y="0px"
	 viewBox="0 0 50 50" style="enable-background:new 0 0 50 50;" xml:space="preserve">
<style type="text/css">
	.st0{fill:#FFE285;}
	.st1{fill:#F6A230;}
	.st2{fill:#53180F;}
</style>
<path class="st0" d="M34,38.8v-4h4.1c0.9,0,1.7-0.8,1.7-1.7V22.4c0-0.9-0.8-1.7-1.7-1.7H34v-4h4.1c3.1,0,5.6,2.5,5.6,5.6v10.8
	c0,3.1-2.5,5.6-5.6,5.6L34,38.8L34,38.8z"/>
<path class="st1" d="M19.8,10.3h-3.9v7.9c0,1.3-1.1,2.4-2.4,2.4c-1.3,0-2.4-1.1-2.4-2.4v-7.9H6.3v38.9H34V10.3H21.8"/>
<g>
	<path class="st0" d="M34,49.3v-7.1c0-1.9-1.5-3.5-3.5-3.5S27,40.3,27,42.2v7.1H34z"/>
	<path class="st0" d="M20.1,49.3v-7.1c0-1.9-1.5-3.5-3.5-3.5s-3.5,1.5-3.5,3.5v7.1H20.1z"/>
	<path class="st0" d="M27,49.3v-7.1c0-1.9-1.5-3.5-3.5-3.5c-1.9,0-3.5,1.5-3.5,3.5v7.1H27z"/>
	<path class="st0" d="M13.2,49.3v-7.1c0-1.9-1.5-3.5-3.5-3.5c-1.9,0-3.5,1.5-3.5,3.5v7.1H13.2z"/>
</g>
<path class="st2" d="M38.1,16h-3.3v-5V9.9V9.6h0c-0.2-2.3-2.1-4-4.3-4h-1.2c-0.4-3.1-3-5.6-6.3-5.6c-2.5,0-4.7,1.5-5.7,3.6
	c-0.8-1.1-2.1-1.8-3.6-1.8c-2.3,0-4.1,1.7-4.4,3.8c-1.9,0.4-3.4,2-3.5,4h0v0.3v1.2v31.1V50h6.9H14h5.4h1.5h5.4h1.5h6.9v-7.8v-2.6
	h3.3c3.5,0,6.4-2.9,6.4-6.4V22.4C44.4,18.9,41.6,16,38.1,16z M13.5,21.4c1.7,0,3.1-1.4,3.1-3.1v-7.2h3.2h0V9.6h0h-4.7v8.7
	c0,0.9-0.7,1.6-1.6,1.6c-0.9,0-1.6-0.7-1.6-1.6V9.6H7.1C7.2,8.2,8.4,7.1,9.8,7l0.7,0l0-0.7c0-1.6,1.4-3,3-3c1.7,0,3,1.4,3,3H18
	c0-2.7,2.2-4.8,4.8-4.8c2.7,0,4.8,2.2,4.8,4.8V7h2.7c1.5,0,2.7,1.1,2.9,2.5H21.8h0v1.5h0h11.4v5v5.4v12.7V39c-0.7-0.6-1.7-1-2.7-1
	c-1.4,0-2.7,0.7-3.5,1.8c-0.8-1.1-2-1.8-3.5-1.8c-1.4,0-2.7,0.7-3.5,1.8c-0.8-1.1-2-1.8-3.5-1.8s-2.7,0.7-3.5,1.8
	c-0.8-1.1-2-1.8-3.5-1.8c-1,0-2,0.4-2.7,1V11.1h3.4v7.2C10.4,20,11.8,21.4,13.5,21.4z M34.7,21.5h3.3c0.5,0,0.9,0.4,0.9,0.9v10.8
	c0,0.5-0.4,0.9-0.9,0.9h-3.3V21.5z M7,48.5v-6.3c0-1.5,1.2-2.7,2.7-2.7s2.7,1.2,2.7,2.7v6.3H7z M14,48.5v-6.3c0-1.5,1.2-2.7,2.7-2.7
	c1.5,0,2.7,1.2,2.7,2.7v6.3H14z M20.9,48.5v-6.3c0-1.5,1.2-2.7,2.7-2.7c1.5,0,2.7,1.2,2.7,2.7v6.3H20.9z M33.2,48.5h-5.4v-6.3
	c0-1.5,1.2-2.7,2.7-2.7c1.5,0,2.7,1.2,2.7,2.7L33.2,48.5L33.2,48.5z M43,33.2c0,2.7-2.2,4.9-4.9,4.9h-3.3v-2.5h3.3
	c1.3,0,2.4-1.1,2.4-2.4V22.4c0-1.3-1.1-2.4-2.4-2.4h-3.3v-2.5h3.3c2.7,0,4.9,2.2,4.9,4.9V33.2z"/>
</svg>
